<?xml version="1.0" encoding="UTF-8"?>
<svg width="744px" height="196px" viewBox="0 0 744 196" version="1.1" xmlns="http://www.w3.org/2000/svg" xmlns:xlink="http://www.w3.org/1999/xlink">
    <!-- Generator: Sketch 50 (54983) - http://www.bohemiancoding.com/sketch -->
    <title>logo_white</title>
    <desc>Created with Sketch.</desc>
    <defs></defs>
    <g id="Diagrams" stroke="none" stroke-width="1" fill="none" fill-rule="evenodd">
        <g id="Diagram-Copy-10" transform="translate(-2495.000000, -5551.000000)" fill="#FFFFFF" fill-rule="nonzero">
            <g id="logo_white" transform="translate(2495.000000, 5551.000000)">
                <g id="Group">
                    <path d="M136.8,160.1 C134.1,162.5 131.5,164.9 129.1,167.3 C127.7,168.7 125,171.6 123.1,173.7 C121.8,175.1 121.6,177.2 122.5,178.9 C124.2,181.9 125.9,184.9 127.5,188 C133.1,185.5 138.3,182.4 143.2,178.8 C145,177.5 145.5,175.1 144.5,173.2 C142.1,168.7 139.5,164.4 136.8,160.1 Z" id="Shape"></path>
                    <path d="M157.3,112.9 C154.1,108.7 150.7,104.7 147.3,100.7 C145.4,98.5 142.1,98.4 140,100.4 C137.4,102.9 134.2,105.6 130.9,108.4 C129,110 128.8,112.8 130.4,114.6 C133.2,117.8 135.9,121 138.5,124.3 C143.1,130 147.4,135.9 151.4,142 C155.3,147.8 159,153.9 162.4,160 C167,153.9 170.9,147.3 174,140.1 C174.6,138.8 174.5,137.2 173.7,136 C172.6,134.3 171.5,132.5 170.3,130.8 C173,129.4 175.7,128.1 178.4,126.9 C179.6,122.4 180.4,114.7 180.9,109 C181.2,105.7 177.9,103.3 174.8,104.6 C168.8,107.1 163,109.9 157.3,112.9" id="Shape"></path>
                    <path d="M47.5,155.6 C43.7,161.3 40.2,167.2 36.9,173.2 C35.9,175.1 36.4,177.5 38.2,178.8 C43.1,182.4 48.4,185.4 53.9,188 C56.8,182.3 60,176.8 63.4,171.4 C65.3,168.4 67.3,165.4 69.3,162.5 C69.6,162.1 69.9,161.7 70.2,161.3 C70.9,160.3 71.7,159.2 72.4,158.2 C72.7,157.8 73,157.4 73.3,157 C74.3,155.6 75.3,154.3 76.4,153 C80.9,147.2 85.7,141.7 90.8,136.3 C95.9,141.7 100.7,147.2 105.2,153 C100.1,158.5 95.3,164.3 90.8,170.3 C88.5,167.2 86.1,164.1 83.6,161.1 C81.8,158.9 78.4,159 76.7,161.3 C73.6,165.5 70.7,169.8 67.9,174.2 L67,175.6 C70.9,180.2 74.5,185 77.8,190 C79,191.8 80.2,193.6 81.3,195.4 C84.4,195.7 87.5,195.9 90.7,195.9 C93.9,195.9 97,195.7 100.1,195.4 C101.2,193.6 102.4,191.7 103.6,190 C108,183.5 112.8,177.3 118,171.4 C120.4,168.7 122.8,166.1 125.4,163.6 C126.2,162.8 127.1,162 127.9,161.2 C129.9,159.3 131.9,157.5 133.9,155.7 C137.1,152.9 140.3,150.3 143.6,147.7 C145.5,146.3 145.9,143.6 144.5,141.7 C141.7,137.7 137.1,131.4 134.2,127.7 L134,127.5 C129.5,130.8 125.1,134.2 120.9,137.8 C116.3,132.1 111.5,126.5 106.5,121.2 C106.5,121.2 106.5,121.2 106.5,121.2 C106.5,121.2 106.5,121.2 106.4,121.1 C106.4,121.1 106.4,121.1 106.5,121 C107.2,120.4 107.8,119.9 108.5,119.3 C108.5,119.3 108.6,119.3 108.6,119.2 C109.3,118.7 109.9,118.1 110.6,117.6 C111.2,117.1 111.8,116.7 112.4,116.2 C112.6,116.1 112.7,115.9 112.9,115.8 C113.7,115.2 114.4,114.6 115.2,114 C116.6,112.9 118,111.8 119.4,110.7 C119.4,110.7 119.4,110.7 119.5,110.7 C120.9,109.6 122.3,108.5 123.7,107.4 C123.7,107.4 123.7,107.4 123.7,107.4 C124.1,107.1 124.5,106.7 124.9,106.4 C125.2,106.1 125.5,105.9 125.9,105.6 C126,105.5 126.1,105.5 126.1,105.4 C126.5,105.1 126.8,104.8 127.2,104.5 C127.2,104.5 127.2,104.5 127.3,104.4 C132.7,99.9 137.6,95.6 140.6,91.9 C148.8,82.1 151.5,71.5 151.5,60.8 C151.5,27.2 124.2,1.42108547e-14 90.6,1.42108547e-14 C57,1.42108547e-14 29.7,27.2 29.7,60.8 C29.7,71.5 32.4,82.2 40.6,91.9 C43.4,95.3 47.8,99.2 52.7,103.3 C52.7,103.3 52.8,103.3 52.8,103.4 C53.2,103.7 53.5,104 53.9,104.3 C53.9,104.3 54,104.4 54,104.4 C57.9,107.6 62,110.8 66,114 C66.2,114.2 66.9,114.7 67.6,115.3 C69.3,116.7 71.8,116.5 73.4,115 L86.4,102.3 C86.4,102.3 86.4,102.3 86.5,102.3 C84.2,100.4 81.9,98.5 79.5,96.7 C72.7,91.4 61.4,82.6 57.4,77.9 C53.4,73.1 51.6,67.9 51.6,60.9 C51.6,39.5 69.1,22 90.5,22 C112,22 129.4,39.4 129.4,60.9 C129.4,67.9 127.6,73.2 123.6,77.9 C119.6,82.6 108.3,91.5 101.5,96.7 C99.3,98.4 97,100.3 94.5,102.3 C93.2,103.4 91.8,104.5 90.4,105.7 C90.4,105.7 90.3,105.8 90.3,105.8 C84.8,110.6 79.6,115.8 74.6,121.1 C74.6,121.1 74.6,121.1 74.6,121.1 C74.6,121.1 74.6,121.1 74.6,121.1 C74.6,121.1 74.6,121.1 74.5,121.2 C69.5,126.5 64.6,132 60.1,137.8 C54.6,133 48.7,128.6 42.7,124.4 C45.3,121.1 48,117.9 50.8,114.7 C52.4,112.8 52.2,110 50.3,108.5 C46.9,105.7 43.8,103 41.2,100.5 C39.1,98.5 35.8,98.6 33.9,100.8 C30.4,104.8 27.1,108.9 23.8,113 C18.1,110 12.3,107.2 6.3,104.8 C3.2,103.5 -0.1,105.9 0.2,109.2 C0.7,114.9 1.5,122.6 2.7,127.1 C5.5,128.3 8.2,129.6 10.8,131 C17.3,134.3 23.6,138.1 29.7,142.2 C36.1,146.2 41.9,150.7 47.5,155.6" id="Shape"></path>
                    <path d="M23.4,144.2 C19.3,141.7 12.8,137.7 8.7,135.6 L8.2,135.4 C8,135.7 7.9,135.9 7.7,136.2 C6.9,137.4 6.8,139 7.4,140.3 C10.4,147.4 14.3,154.1 19,160.2 C20.9,156.9 22.8,153.5 24.8,150.3 C26.1,148.1 25.5,145.4 23.4,144.2 Z" id="Shape"></path>
                </g>
                <g id="Group" transform="translate(251.000000, 31.000000)">
                    <path d="M46.8,5.3 L10.6,5.3 C5.1,5.3 0.6,9.8 0.6,15.3 L0.6,130.6 L17.7,130.6 C23.2,130.6 27.7,126.1 27.7,120.6 L27.7,102 L46.6,102 C83.9,102 102.9,80.3 102.9,53.7 C102.8,26.9 83.9,5.3 46.8,5.3 Z M48.1,78.7 L27.6,78.7 L27.6,28.4 L48.3,28.4 C64.7,28.4 74.6,39.6 74.6,53.5 C74.6,67.4 64.8,78.7 48.1,78.7 Z" id="Shape"></path>
                    <path d="M118.3,51.6 L118.3,130.6 L133.7,130.6 C139.2,130.6 143.7,126.1 143.7,120.6 L143.7,41.6 L128.3,41.6 C122.8,41.6 118.3,46.1 118.3,51.6 Z" id="Shape"></path>
                    <path d="M132,0.9 C123.6,0.9 116.6,8 116.6,16.3 C116.6,24.6 123.7,31.7 132,31.7 C140.4,31.7 147.4,24.6 147.4,16.3 C147.4,8 140.4,0.9 132,0.9 Z" id="Shape"></path>
                    <path d="M219.6,103.4 C216,106.4 211.2,108.1 205.8,108.1 C193.4,108.1 184.4,98.9 184.4,86.1 C184.4,73.3 193.4,64.1 205.8,64.1 C211.2,64.1 216,65.8 219.6,68.8 C222.8,71.5 227.4,71.9 231,69.8 L246,61.1 C238,47.5 222.9,39.1 206.2,39.1 C179.3,39.1 159,59.3 159,86.1 C159,112.9 179.3,133.1 206.2,133.1 C222.9,133.1 238.1,124.6 246,110.9 L231,102.3 C227.4,100.3 222.9,100.7 219.6,103.4 Z" id="Shape"></path>
                    <path d="M311.2,39 C300.1,39 290.9,42.9 286,49.7 L284.3,52 L284.3,41.6 L268.9,41.6 C263.4,41.6 258.9,46.1 258.9,51.6 L258.9,130.6 L274.3,130.6 C279.8,130.6 284.3,126.1 284.3,120.6 L284.3,81.9 C284.3,69.4 290.8,62.3 302.1,62.3 C310.2,62.3 318.8,66.9 318.8,79.8 L318.8,130.6 L334.2,130.6 C339.7,130.6 344.2,126.1 344.2,120.6 L344.2,75.8 C344.3,50.4 327.7,39 311.2,39 Z" id="Shape"></path>
                    <path d="M363.8,51.6 L363.8,130.6 L379.2,130.6 C384.7,130.6 389.2,126.1 389.2,120.6 L389.2,41.6 L373.8,41.6 C368.3,41.6 363.8,46.1 363.8,51.6 Z" id="Shape"></path>
                    <circle id="Oval" cx="377.5" cy="16.3" r="15.4"></circle>
                    <path d="M477.5,102.4 C473.9,100.3 469.3,100.7 466.1,103.4 C462.5,106.4 457.7,108.1 452.3,108.1 C439.9,108.1 430.9,98.9 430.9,86.1 C430.9,73.3 439.9,64.1 452.3,64.1 C457.7,64.1 462.5,65.8 466.1,68.8 C469.3,71.5 473.9,71.9 477.5,69.8 L492.5,61.1 C484.5,47.5 469.4,39.1 452.7,39.1 C425.8,39.1 405.5,59.3 405.5,86.1 C405.5,112.9 425.8,133.1 452.7,133.1 C469.4,133.1 484.6,124.6 492.5,110.9 L477.5,102.4 Z" id="Shape"></path>
                </g>
            </g>
        </g>
    </g>
</svg>